<svg width="63" height="63" viewBox="0 0 63 63" fill="none" xmlns="http://www.w3.org/2000/svg">
<g id="Bold / Money / Card Send">
<g id="Vector">
<path fill-rule="evenodd" clip-rule="evenodd" d="M48.4829 35.3579C49.2517 34.589 50.4983 34.589 51.2671 35.3579L56.5171 40.6079C57.286 41.3767 57.286 42.6233 56.5171 43.3921C55.7483 44.161 54.5017 44.161 53.7329 43.3921L51.8438 41.503V52.5C51.8438 53.5873 50.9623 54.4688 49.875 54.4688C48.7877 54.4688 47.9062 53.5873 47.9062 52.5V41.503L46.0171 43.3921C45.2483 44.161 44.0017 44.161 43.2329 43.3921C42.464 42.6233 42.464 41.3767 43.2329 40.6079L48.4829 35.3579Z" fill="#57A4FF"/>
<path d="M26.25 10.5H36.75C46.6495 10.5 51.5992 10.5 54.6746 13.5754C56.8889 15.7897 57.5089 18.9757 57.6825 24.2812H5.31751C5.4911 18.9757 6.11108 15.7897 8.32538 13.5754C11.4008 10.5 16.3505 10.5 26.25 10.5Z" fill="#57A4FF"/>
<path fill-rule="evenodd" clip-rule="evenodd" d="M26.25 52.5H36.75C39.5218 52.5 41.9055 52.5 43.9688 52.4325V47.8699C42.6828 47.727 41.4347 47.1624 40.4487 46.1763C38.1421 43.8698 38.1421 40.1302 40.4487 37.8237L45.6987 32.5737C48.0052 30.2671 51.7448 30.2671 54.0513 32.5737L57.7336 36.2559C57.75 34.811 57.75 33.2312 57.75 31.5C57.75 30.3399 57.75 29.2478 57.7451 28.2188H5.25495C5.25 29.2478 5.25 30.3399 5.25 31.5C5.25 41.3995 5.25 46.3492 8.32538 49.4246C11.4008 52.5 16.3505 52.5 26.25 52.5ZM13.7812 42C13.7812 40.9127 14.6627 40.0312 15.75 40.0312H26.25C27.3373 40.0312 28.2188 40.9127 28.2188 42C28.2188 43.0873 27.3373 43.9688 26.25 43.9688H15.75C14.6627 43.9688 13.7812 43.0873 13.7812 42ZM32.8125 40.0312C31.7252 40.0312 30.8438 40.9127 30.8438 42C30.8438 43.0873 31.7252 43.9688 32.8125 43.9688H36.75C37.8373 43.9688 38.7188 43.0873 38.7188 42C38.7188 40.9127 37.8373 40.0312 36.75 40.0312H32.8125Z" fill="#57A4FF"/>
</g>
</g>
</svg>
