<svg width="63" height="63" viewBox="0 0 63 63" fill="none" xmlns="http://www.w3.org/2000/svg">
<circle cx="23.6279" cy="15.75" r="10.5" fill="#57A4FF"/>
<ellipse cx="23.6279" cy="44.6277" rx="18.375" ry="10.5" fill="#57A4FF"/>
<path d="M55.1244 44.6262C55.1244 48.9755 49.7811 52.5011 43.2573 52.5011C45.1793 50.4003 46.5009 47.7633 46.5009 44.6299C46.5009 41.4929 45.1762 38.8534 43.2506 36.7513C49.7744 36.7513 55.1244 40.277 55.1244 44.6262Z" fill="#57A4FF"/>
<path d="M47.2494 15.752C47.2494 20.1012 43.7237 23.627 39.3745 23.627C38.4261 23.627 37.5169 23.4593 36.6748 23.152C37.9167 20.9678 38.6259 18.4412 38.6259 15.749C38.6259 13.0588 37.9177 10.534 36.6776 8.35086C37.5188 8.04422 38.4271 7.87695 39.3745 7.87695C43.7237 7.87695 47.2494 11.4027 47.2494 15.752Z" fill="#57A4FF"/>
</svg>
