<svg width="63" height="63" viewBox="0 0 63 63" fill="none" xmlns="http://www.w3.org/2000/svg">
<g id="Bold / Money / Tag">
<path id="Vector" fill-rule="evenodd" clip-rule="evenodd" d="M5.57193 33.6419C6.32673 36.2738 8.35524 38.3023 12.4123 42.3593L17.2151 47.1621C24.2737 54.2207 27.8029 57.75 32.1886 57.75C36.5742 57.75 40.1035 54.2207 47.1621 47.1621C54.2207 40.1035 57.75 36.5742 57.75 32.1886C57.75 27.8029 54.2207 24.2737 47.1621 17.2151L42.3593 12.4123C38.3023 8.35524 36.2738 6.32673 33.6419 5.57193C31.0101 4.81712 28.2148 5.46219 22.6242 6.75232L19.4002 7.49632C14.6969 8.58171 12.3452 9.12441 10.7348 10.7348C9.12441 12.3452 8.58171 14.6969 7.49632 19.4002L6.75232 22.6242C5.46219 28.2148 4.81712 31.0101 5.57193 33.6419ZM26.5739 19.0863C28.6413 21.1537 28.6413 24.5057 26.5739 26.5731C24.5065 28.6405 21.1546 28.6405 19.0871 26.5731C17.0197 24.5057 17.0197 21.1537 19.0871 19.0863C21.1546 17.0189 24.5065 17.0189 26.5739 19.0863ZM50.0091 31.6341L31.6892 49.9546C30.9204 50.7234 29.6739 50.7235 28.905 49.9546C28.1361 49.1858 28.1361 47.9393 28.9049 47.1704L47.2248 28.8499C47.9937 28.081 49.2402 28.081 50.0091 28.8498C50.7779 29.6187 50.7779 30.8652 50.0091 31.6341Z" fill="#57A4FF"/>
</g>
</svg>
