<svg width="31" height="31" viewBox="0 0 31 31" fill="none" xmlns="http://www.w3.org/2000/svg">
<g id="instagram-2-1-logo-svgrepo-com 1">
<g clip-path="url(#clip0_875_1872)">
<path id="Vector" d="M7.86079 30.8904C6.01721 30.8065 5.01572 30.4997 4.3496 30.2399C3.46697 29.8962 2.8377 29.4872 2.17526 28.8257C1.51282 28.1641 1.10283 27.5349 0.761019 26.6522C0.501204 25.9861 0.194401 24.9846 0.11056 23.1411C0.0184266 21.1482 0 20.5503 0 15.5014C0 10.4525 0.0202693 9.85547 0.109638 7.86079C0.193479 6.01721 0.502125 5.01756 0.760098 4.3496C1.10375 3.46697 1.51375 2.8377 2.17434 2.17434C2.83585 1.51282 3.46512 1.10191 4.34868 0.760098C5.0148 0.500282 6.01629 0.193479 7.85987 0.109638C9.85363 0.0184266 10.4525 0 15.4995 0C20.5484 0 21.1455 0.0202693 23.1401 0.109638C24.9837 0.193479 25.9834 0.502125 26.6513 0.760098C27.534 1.10191 28.1632 1.51282 28.8257 2.17434C29.4881 2.83585 29.8962 3.46604 30.2399 4.34868C30.4997 5.0148 30.8065 6.01629 30.8904 7.85987C30.9816 9.85455 31 10.4516 31 15.5005C31 20.5475 30.9816 21.1464 30.8904 23.1411C30.8065 24.9846 30.4979 25.9861 30.2399 26.6522C29.8962 27.5349 29.4872 28.1641 28.8257 28.8257C28.1641 29.4872 27.534 29.8962 26.6513 30.2399C25.9852 30.4997 24.9837 30.8065 23.1401 30.8904C21.1473 30.9816 20.5484 31 15.4995 31C10.4525 31 9.85363 30.9825 7.86079 30.8904Z" fill="#1A1B1E"/>
<path id="Vector_2" d="M12.3341 14.8073C12.3341 13.0584 13.7515 11.6402 15.5004 11.6402C17.2493 11.6402 18.6674 13.0584 18.6674 14.8073C18.6674 16.5562 17.2493 17.9743 15.5004 17.9743C13.7515 17.9743 12.3341 16.5562 12.3341 14.8073ZM10.622 14.8073C10.622 17.5016 12.8061 19.6856 15.5004 19.6856C18.1947 19.6856 20.3787 17.5016 20.3787 14.8073C20.3787 12.113 18.1947 9.92893 15.5004 9.92893C12.8061 9.92893 10.6221 12.1128 10.6221 14.8073M19.4319 9.73551C19.4318 9.96099 19.4985 10.1814 19.6237 10.369C19.7489 10.5565 19.9269 10.7027 20.1352 10.7891C20.3435 10.8754 20.5727 10.8981 20.7939 10.8542C21.015 10.8103 21.2182 10.7018 21.3777 10.5424C21.5372 10.383 21.6459 10.18 21.69 9.95882C21.734 9.73769 21.7116 9.50846 21.6253 9.30011C21.5391 9.09176 21.3931 8.91365 21.2057 8.7883C21.0182 8.66296 20.7978 8.59601 20.5724 8.59592H20.5719C20.2697 8.59606 19.9799 8.71615 19.7661 8.92982C19.5523 9.14349 19.4321 9.43327 19.4319 9.73551ZM11.6622 22.5404C10.736 22.4982 10.2325 22.344 9.89797 22.2136C9.45441 22.0409 9.13794 21.8353 8.8052 21.503C8.47246 21.1707 8.26649 20.8545 8.09457 20.411C7.96415 20.0766 7.80986 19.573 7.76775 18.6467C7.7217 17.6453 7.7125 17.3445 7.7125 14.8074C7.7125 12.2704 7.72246 11.9704 7.76775 10.9681C7.80994 10.0419 7.96536 9.53927 8.09457 9.20386C8.26725 8.76031 8.47291 8.44383 8.8052 8.11109C9.13748 7.77835 9.45365 7.57238 9.89797 7.40046C10.2324 7.27004 10.736 7.11576 11.6622 7.07365C12.6636 7.02759 12.9645 7.0184 15.5004 7.0184C18.0363 7.0184 18.3374 7.0282 19.3397 7.0738C20.2659 7.11599 20.7685 7.27141 21.1039 7.40062C21.5475 7.57254 21.864 7.77896 22.1967 8.11124C22.5294 8.44353 22.7347 8.76046 22.9073 9.20402C23.0378 9.53843 23.192 10.042 23.2341 10.9683C23.2802 11.9705 23.2894 12.2705 23.2894 14.8076C23.2894 17.3446 23.2802 17.6446 23.2341 18.6469C23.192 19.5731 23.0369 20.0766 22.9073 20.4111C22.7347 20.8547 22.529 21.1712 22.1967 21.5031C21.8644 21.8351 21.5475 22.0411 21.1039 22.2138C20.7695 22.3442 20.2659 22.4985 19.3397 22.5406C18.3383 22.5866 18.0374 22.5958 15.5004 22.5958C12.9633 22.5958 12.6633 22.5866 11.6622 22.5406M11.5836 5.36442C10.5722 5.41048 9.8811 5.57084 9.27756 5.80569C8.65289 6.04822 8.12337 6.37359 7.59462 6.9015C7.06587 7.42942 6.74133 7.95901 6.49881 8.58444C6.26396 9.18836 6.10359 9.87908 6.05753 10.8904C6.01072 11.9034 6 12.2273 6 14.8073C6 17.3873 6.01072 17.7111 6.05753 18.7241C6.10359 19.7355 6.26396 20.4262 6.49881 21.0301C6.74133 21.6548 7.06594 22.1853 7.59462 22.713C8.1233 23.2407 8.65213 23.5656 9.27756 23.8088C9.88224 24.0437 10.5722 24.2041 11.5836 24.2501C12.5971 24.2962 12.9204 24.3076 15.5004 24.3076C18.0804 24.3076 18.4042 24.2969 19.4172 24.2501C20.4286 24.2041 21.1193 24.0437 21.7232 23.8088C22.3479 23.5656 22.8774 23.2409 23.4061 22.713C23.9349 22.1851 24.2587 21.6548 24.502 21.0301C24.7368 20.4262 24.8979 19.7355 24.9432 18.7241C24.9893 17.7104 25 17.3873 25 14.8073C25 12.2273 24.9893 11.9034 24.9432 10.8904C24.8972 9.879 24.7368 9.18798 24.502 8.58444C24.2587 7.95977 23.9341 7.43026 23.4061 6.9015C22.8782 6.37275 22.3479 6.04822 21.724 5.80569C21.1193 5.57084 20.4286 5.40972 19.418 5.36442C18.4048 5.31813 18.0811 5.30688 15.5015 5.30688C12.9219 5.30688 12.5974 5.3176 11.5839 5.36442" fill="white"/>
</g>
</g>
<defs>
<clipPath id="clip0_875_1872">
<rect width="31" height="31" rx="15.5" fill="white"/>
</clipPath>
</defs>
</svg>
