<svg width="31" height="31" viewBox="0 0 31 31" fill="none" xmlns="http://www.w3.org/2000/svg">
<g id="Logo 1" clip-path="url(#clip0_875_1846)">
<g id="Artboard">
<path id="Oval" d="M15.5 31C24.0604 31 31 24.0604 31 15.5C31 6.93959 24.0604 0 15.5 0C6.93959 0 0 6.93959 0 15.5C0 24.0604 6.93959 31 15.5 31Z" fill="#1A1B1E"/>
<path id="Path-3" fill-rule="evenodd" clip-rule="evenodd" d="M7.01656 15.3364C11.5351 13.3678 14.5482 12.0699 16.0558 11.4428C20.3603 9.65244 21.2548 9.34143 21.8378 9.33116C21.966 9.32891 22.2527 9.36068 22.4384 9.51137C22.5952 9.63861 22.6383 9.81049 22.659 9.93113C22.6796 10.0518 22.7053 10.3266 22.6849 10.5413C22.4516 12.9922 21.4423 18.94 20.9288 21.685C20.7115 22.8466 20.2837 23.236 19.8695 23.2741C18.9694 23.357 18.2859 22.6793 17.4141 22.1078C16.0499 21.2135 15.2792 20.6569 13.955 19.7843C12.4247 18.7758 13.4167 18.2215 14.2889 17.3157C14.5171 17.0786 18.483 13.4713 18.5598 13.1441C18.5694 13.1031 18.5783 12.9506 18.4877 12.87C18.3971 12.7895 18.2633 12.817 18.1668 12.8389C18.0299 12.87 15.8506 14.3104 11.6288 17.1603C11.0102 17.5851 10.4499 17.792 9.94786 17.7812C9.39443 17.7692 8.32985 17.4683 7.53845 17.211C6.56776 16.8955 5.79627 16.7287 5.86345 16.1928C5.89844 15.9137 6.28281 15.6282 7.01656 15.3364Z" fill="white"/>
</g>
</g>
<defs>
<clipPath id="clip0_875_1846">
<rect width="31" height="31" fill="white"/>
</clipPath>
</defs>
</svg>
