<svg width="31" height="31" viewBox="0 0 31 31" fill="none" xmlns="http://www.w3.org/2000/svg">
<g id="VK Logo Black &#38; White 1">
<g clip-path="url(#clip0_875_1865)">
<g id="Clip path group">
<mask id="mask0_875_1865" style="mask-type:luminance" maskUnits="userSpaceOnUse" x="0" y="0" width="31" height="31">
<g id="clip0_2_16">
<path id="Vector" d="M30.8464 0H0.15332V30.6931H30.8464V0Z" fill="white"/>
</g>
</mask>
<g mask="url(#mask0_875_1865)">
<g id="Group">
<rect id="Rectangle 3506" x="5" y="8" width="22" height="16" fill="white"/>
<path id="Vector_2" fill-rule="evenodd" clip-rule="evenodd" d="M2.31087 2.15755C0.15332 4.31511 0.15332 7.78763 0.15332 14.7327V15.9604C0.15332 22.9054 0.15332 26.378 2.31087 28.5355C4.46843 30.6931 7.94095 30.6931 14.886 30.6931H16.1137C23.0588 30.6931 26.5313 30.6931 28.6889 28.5355C30.8464 26.378 30.8464 22.9054 30.8464 15.9604V14.7327C30.8464 7.78763 30.8464 4.31511 28.6889 2.15755C26.5313 0 23.0588 0 16.1137 0H14.886C7.94095 0 4.46843 0 2.31087 2.15755ZM5.33284 9.33588C5.49907 17.3161 9.48914 22.1118 16.4846 22.1118H16.8811V17.5462C19.4517 17.802 21.3954 19.682 22.1755 22.1118H25.8077C24.8101 18.4798 22.1883 16.472 20.5514 15.7047C22.1883 14.7583 24.4903 12.4563 25.0402 9.33588H21.7406C21.0245 11.8681 18.9018 14.17 16.8811 14.3874V9.33588H13.5815V18.1857C11.5353 17.6741 8.95204 15.1931 8.83694 9.33588H5.33284Z" fill="#1A1B1E"/>
</g>
</g>
</g>
</g>
</g>
<defs>
<clipPath id="clip0_875_1865">
<rect width="31" height="30.6931" rx="15.3465" fill="white"/>
</clipPath>
</defs>
</svg>
