<svg width="37" height="25" viewBox="0 0 37 25" fill="none" xmlns="http://www.w3.org/2000/svg">
<g id="EN ICON">
<g clip-path="url(#clip0_1602_1943)">
<path id="Vector" d="M37 0H0V25H37V0Z" fill="#F0F0F0"/>
<path id="Vector_2" d="M0 14.8438H15.0312V25H21.9688V14.8438H37V10.1562H21.9688V0H15.0312V10.1562H0V14.8438Z" fill="#D80027"/>
<g id="Group">
<path id="Vector_3" d="M29.4062 16.3044L36.9999 21.4353V16.3044H29.4062Z" fill="#0052B4"/>
<path id="Vector_4" d="M24.1304 16.3044L36.9999 25.0001V22.5411L27.7697 16.3044H24.1304Z" fill="#0052B4"/>
<path id="Vector_5" d="M33.5719 25.0002L24.1304 18.6201V25.0002H33.5719Z" fill="#0052B4"/>
</g>
<path id="Vector_6" d="M24.1304 16.3044L36.9999 25.0001V22.5411L27.7697 16.3044H24.1304Z" fill="#F0F0F0"/>
<path id="Vector_7" d="M24.1304 16.3044L36.9999 25.0001V22.5411L27.7697 16.3044H24.1304Z" fill="#D80027"/>
<g id="Group_2">
<path id="Vector_8" d="M5.80307 16.3044L0 20.2254V16.3044H5.80307Z" fill="#0052B4"/>
<path id="Vector_9" d="M12.8692 17.4102V24.9999H1.63721L12.8692 17.4102Z" fill="#0052B4"/>
</g>
<path id="Vector_10" d="M9.23005 16.3044L0 22.541V25L12.8694 16.3044H9.23005Z" fill="#D80027"/>
<g id="Group_3">
<path id="Vector_11" d="M7.59367 8.69556L0 3.5647V8.69556H7.59367Z" fill="#0052B4"/>
<path id="Vector_12" d="M12.8696 8.69565L0 0V2.45898L9.23027 8.69565H12.8696Z" fill="#0052B4"/>
<path id="Vector_13" d="M3.42822 0L12.8698 6.38003V0H3.42822Z" fill="#0052B4"/>
</g>
<path id="Vector_14" d="M12.8696 8.69565L0 0V2.45898L9.23027 8.69565H12.8696Z" fill="#F0F0F0"/>
<path id="Vector_15" d="M12.8696 8.69565L0 0V2.45898L9.23027 8.69565H12.8696Z" fill="#D80027"/>
<g id="Group_4">
<path id="Vector_16" d="M31.1973 8.69565L37.0003 4.77466V8.69565H31.1973Z" fill="#0052B4"/>
<path id="Vector_17" d="M24.1309 7.58999V0.000244141H35.3628L24.1309 7.58999Z" fill="#0052B4"/>
</g>
<path id="Vector_18" d="M27.7702 8.69551L37.0002 2.45894V0L24.1309 8.69551H27.7702Z" fill="#D80027"/>
</g>
</g>
<defs>
<clipPath id="clip0_1602_1943">
<rect width="37" height="25" rx="5" fill="white"/>
</clipPath>
</defs>
</svg>
